<?xml version="1.0" standalone="no"?>
<!DOCTYPE svg PUBLIC "-//W3C//DTD SVG 20010904//EN"
 "http://www.w3.org/TR/2001/REC-SVG-20010904/DTD/svg10.dtd">
<svg version="1.0" xmlns="http://www.w3.org/2000/svg"
 width="512.000000pt" height="512.000000pt" viewBox="0 0 512.000000 512.000000"
 preserveAspectRatio="xMidYMid meet">
<metadata>
Created by potrace 1.14, written by Peter Selinger 2001-2017
</metadata>
<g transform="translate(0.000000,512.000000) scale(0.100000,-0.100000)"
fill="#000000" stroke="none">
<path d="M2379 5116 c-2 -2 -40 -6 -83 -10 -44 -4 -82 -9 -85 -11 -4 -2 -34
-7 -66 -10 -87 -10 -345 -77 -461 -120 -686 -254 -1219 -769 -1497 -1445 -31
-77 -91 -255 -102 -305 -2 -11 -8 -35 -14 -53 -5 -18 -10 -35 -10 -37 0 -3 -2
-18 -5 -33 -15 -72 -19 -96 -35 -217 -14 -100 -18 -180 -15 -350 1 -121 5
-236 9 -255 3 -19 13 -78 21 -130 27 -166 79 -357 141 -515 35 -89 122 -271
159 -332 10 -17 36 -60 57 -95 184 -306 516 -633 842 -827 434 -258 861 -373
1365 -365 118 2 226 5 240 8 14 2 45 7 70 10 72 11 201 36 245 47 22 6 49 13
60 15 37 7 129 36 225 71 794 289 1401 966 1604 1788 13 55 27 116 30 135 3
19 8 49 11 65 24 141 30 218 30 410 -1 193 -3 251 -16 330 -4 28 -10 66 -13
85 -2 19 -9 58 -15 85 -6 28 -13 61 -15 75 -19 96 -80 286 -133 415 -183 443
-522 859 -918 1127 -339 228 -690 365 -1085 423 -19 3 -53 7 -75 11 -43 6
-461 15 -466 10z m525 -985 c307 -102 538 -330 613 -605 13 -48 17 -116 19
-316 2 -140 3 -264 4 -275 0 -18 7 -21 70 -22 130 -4 259 -37 340 -88 48 -30
104 -95 133 -152 66 -130 76 -220 72 -603 -1 -168 -5 -317 -8 -331 -83 -416
-357 -692 -759 -764 -70 -12 -206 -14 -853 -12 -423 2 -781 6 -795 10 -14 4
-38 9 -55 13 -99 19 -238 78 -325 138 -208 142 -350 373 -388 631 -9 64 -9
1555 0 1615 19 124 65 251 132 363 49 82 169 210 245 262 116 77 276 138 401
151 30 4 57 8 59 10 3 3 235 3 515 1 503 -2 512 -3 580 -26z"/>
<path d="M1894 3341 c-89 -41 -135 -118 -130 -218 6 -96 53 -159 142 -192 44
-16 89 -17 444 -16 380 1 396 2 435 22 85 44 127 110 127 203 1 91 -54 170
-144 208 -19 8 -151 11 -430 11 -372 1 -406 -1 -444 -18z"/>
<path d="M1924 2194 c-100 -25 -171 -126 -161 -228 6 -63 26 -104 69 -145 66
-62 61 -62 749 -59 l624 3 43 25 c49 28 98 96 108 149 10 53 -11 139 -44 180
-16 20 -51 47 -77 61 l-49 25 -609 0 c-409 0 -624 -3 -653 -11z"/>
</g>
</svg>
